<mxfile host="app.diagrams.net" modified="2024-03-21T14:44:09.631Z" agent="Mozilla/5.0 (Windows NT 10.0; Win64; x64) AppleWebKit/537.36 (KHTML, like Gecko) Chrome/122.0.0.0 Safari/537.36" version="24.0.7" etag="ZU6oWqHvbLXje5yFqPC8" type="github">
  <diagram name="Page-1" id="iyghYxb4ubcBqHd-kGt_">
    <mxGraphModel>
      <root>
        <mxCell id="0" />
        <mxCell id="1" parent="0" />
      </root>
    </mxGraphModel>
  </diagram>
</mxfile>
